<svg width="200" height="200" viewBox="0 0 200 200" fill="none" xmlns="http://www.w3.org/2000/svg">
<path d="M198.539 150.688C198.539 139.397 197.873 128.363 196.623 117.247C196.719 111.401 195.276 105.633 192.439 100.522C186.839 93.0799 171.373 95.0049 164.181 94.5882C104.156 90.7465 116.439 96.7549 97.2975 97.0132C96.5814 97.0681 95.9125 97.3913 95.4244 97.9181C94.9364 98.445 94.6653 99.1367 94.6653 99.8549C94.6653 100.573 94.9364 101.265 95.4244 101.792C95.9125 102.318 96.5814 102.642 97.2975 102.697C117.697 102.697 104.489 96.5132 163.422 101.947C167.939 101.947 183.073 101.947 185.664 105.288C188.256 108.63 189.089 144.83 189.089 150.605C189.089 159.547 192.523 180.447 186.756 186.972C180.981 193.488 160.922 188.972 152.222 189.388C137.847 190.063 121.456 191.905 107.414 191.572C93.3642 191.238 94.3725 192.238 94.5392 173.513C95.1225 98.2632 94.5392 108.38 94.5392 106.63C94.7305 106.333 94.8569 106 94.91 105.651C94.9631 105.302 94.9417 104.945 94.8472 104.605C94.7528 104.265 94.5874 103.949 94.3619 103.678C94.1365 103.406 93.8561 103.185 93.5392 103.03C93.0899 102.901 92.6172 102.875 92.1567 102.956C91.6962 103.036 91.26 103.22 90.8811 103.494C90.5022 103.767 90.1905 104.124 89.9696 104.536C89.7486 104.948 89.6242 105.404 89.6058 105.872C89.0225 109.055 86.7642 185.88 86.7642 186.472C88.3475 204.188 105.072 199.93 152.556 198.505C169.781 197.922 195.781 207.288 199.122 179.197C199.607 169.692 199.412 160.165 198.539 150.688Z" fill="#EDEDED" fill-opacity="0.4"/>
<path d="M134.664 168.913C137.423 168.33 138.764 167.83 163.173 154.446C166.689 152.53 174.048 149.763 173.539 144.33C173.031 138.896 166.856 136.888 162.339 134.38L133.331 118.33C133.235 117.986 133.066 117.667 132.836 117.394C132.606 117.121 132.32 116.9 131.998 116.746C125.973 113.821 126.139 127.447 125.639 134.13C125.139 140.822 117.698 172.338 134.664 168.913ZM132.081 133.963C132.081 133.38 133.331 128.613 133.581 124.938L158.414 141.321C160.581 142.249 162.698 143.28 164.764 144.413C163.181 145.33 134.839 159.796 133.498 160.305C131.419 151.687 130.939 142.754 132.081 133.963Z" fill="#EDEDED" fill-opacity="0.4"/>
<path d="M33.006 168.33C33.006 169.084 33.3054 169.806 33.8383 170.339C34.3712 170.872 35.094 171.172 35.8477 171.172C36.6013 171.172 37.3241 170.872 37.857 170.339C38.39 169.806 38.6893 169.084 38.6893 168.33C40.0227 152.055 39.3227 135.68 36.606 119.58C35.9393 115.163 31.1643 115.163 30.331 119.08C30.2295 135.536 31.1228 151.982 33.006 168.33Z" fill="#0C6FFF" fill-opacity="0.4"/>
<path d="M73.6391 109.305C53.0752 106.643 32.3118 105.86 11.6058 106.963C8.25576 107.963 7.75576 110.971 12.1058 113.063C16.0308 113.48 57.2474 115.571 73.3891 114.988C74.114 114.975 74.8064 114.685 75.3255 114.179C75.8446 113.673 76.1513 112.988 76.1832 112.264C76.215 111.54 75.9697 110.83 75.497 110.281C75.0244 109.731 74.36 109.382 73.6391 109.305Z" fill="#EDEDED" fill-opacity="0.4"/>
<path d="M14.9474 141.163C16.4919 141.113 18.0252 140.944 19.5474 140.655C21.853 139.927 24.0807 139.008 26.2307 137.897C26.8971 137.715 27.475 137.298 27.8569 136.723C28.2389 136.147 28.3989 135.453 28.3072 134.768C28.2155 134.084 27.8784 133.456 27.3585 133.001C26.8386 132.547 26.1714 132.296 25.4807 132.297C20.8232 131.179 15.9297 131.588 11.5224 133.463C9.76408 134.88 10.0224 136.138 10.6057 139.397C11.1891 139.313 11.7724 140.23 14.9474 141.155" fill="#0C6FFF" fill-opacity="0.4"/>
<path d="M132.414 36.8214C132.571 31.7952 132.348 26.7642 131.748 21.7714C128.639 0.704775 109.323 0.621444 89.0142 0.204777C73.692 -0.35393 58.3494 0.231027 43.1142 1.95478C31.6605 3.32706 20.425 6.13523 9.67251 10.3131C7.2338 12.1351 5.26414 14.5117 3.92658 17.2462C2.58902 19.9807 1.92203 22.9945 1.98084 26.0381C0.647507 37.3214 -1.02749 130.455 0.814173 147.763C2.65584 165.071 9.17251 175.596 26.3975 178.78C37.9642 180.013 49.6475 179.838 61.1725 178.28C64.4308 178.28 76.7225 179.863 79.3975 176.938C79.8041 176.443 80.0068 175.812 79.9643 175.173C79.9219 174.534 79.6375 173.936 79.169 173.499C78.7006 173.063 78.0833 172.821 77.443 172.824C76.8027 172.826 76.1874 173.073 75.7225 173.513L60.9225 172.846C49.8158 174.191 38.5875 174.191 27.4808 172.846C11.1058 168.996 7.92251 157.955 7.92251 140.48C9.50584 79.9464 5.33917 36.1464 13.3558 19.4214C14.4392 17.2548 23.7225 15.2381 30.0808 13.8214C30.0808 13.8214 98.3809 8.88811 98.3809 8.47144C129.398 8.47144 125.548 21.0964 125.631 56.5381C126.162 66.3976 126.162 76.2786 125.631 86.1381C125.574 86.8606 125.796 87.5774 126.252 88.1411C126.707 88.7048 127.362 89.0725 128.08 89.1685C128.798 89.2646 129.526 89.0817 130.114 88.6576C130.701 88.2334 131.104 87.6002 131.239 86.8881C133.323 77.2715 132.073 75.4381 132.406 36.8048" fill="#EDEDED" fill-opacity="0.4"/>
<path d="M123.464 71.9299C90.6675 68.1504 57.6065 67.2025 24.6473 69.0965C20.714 69.0965 16.289 69.8465 12.8557 70.3465C9.43068 70.8465 9.93901 73.6049 12.0223 75.5299C14.5001 75.7354 16.9807 75.7354 19.464 75.5299C55.414 74.9465 123.214 77.3632 123.464 77.2799C126.389 77.2799 126.222 72.1799 123.464 71.9299Z" fill="#EDEDED" fill-opacity="0.4"/>
<path d="M103.648 46.8548C106.177 47.6125 108.831 47.862 111.457 47.5888C114.083 47.3156 116.629 46.5252 118.948 45.2632C119.701 45.2632 120.424 44.9638 120.957 44.4309C121.49 43.8979 121.789 43.1752 121.789 42.4215C121.789 41.6678 121.49 40.945 120.957 40.4121C120.424 39.8792 119.701 39.5798 118.948 39.5798C114.032 37.6393 108.563 37.6393 103.648 39.5798C102.803 30.2128 101.324 20.9138 99.2227 11.7465C99.1928 11.3581 99.0806 10.9805 98.8937 10.6386C98.7068 10.2968 98.4494 9.99864 98.1386 9.76381C97.8277 9.52897 97.4706 9.36286 97.0907 9.27647C96.7108 9.19009 96.3169 9.18539 95.9351 9.26271C95.5533 9.34003 95.1922 9.49759 94.8759 9.72495C94.5596 9.95232 94.2951 10.2443 94.1001 10.5816C93.9051 10.9188 93.784 11.2937 93.7448 11.6813C93.7056 12.0689 93.7492 12.4604 93.8727 12.8298V23.2798C93.8121 37.2964 95.0423 51.2888 97.5477 65.0798C97.7354 65.7221 98.1115 66.2933 98.6274 66.7193C99.1433 67.1454 99.7753 67.4068 100.441 67.4696C101.108 67.5325 101.777 67.3939 102.364 67.0718C102.95 66.7497 103.427 66.259 103.731 65.6632C103.398 58.7215 103.814 54.3798 103.648 46.8548ZM26.7394 45.4298C26.7394 51.9548 27.6561 58.3048 27.9061 64.8298C27.9061 65.5835 28.2054 66.3063 28.7384 66.8392C29.2713 67.3721 29.9941 67.6715 30.7477 67.6715C31.5014 67.6715 32.2242 67.3721 32.7571 66.8392C33.29 66.3063 33.5894 65.5835 33.5894 64.8298C35.2561 55.1882 36.0894 45.4298 36.0977 35.6465V16.0882C36.0977 13.7465 32.1727 13.2465 30.1644 15.1715C27.9583 23.1224 26.8067 31.3288 26.7394 39.5798C24.5644 39.5798 21.0477 38.4132 17.3727 38.2465C15.8085 38.2408 14.2541 38.4943 12.7727 38.9965C10.3561 41.3298 8.58939 43.1715 11.1894 46.0965C16.3727 46.5965 21.6061 46.3798 26.7394 45.4298Z" fill="#0C6FFF" fill-opacity="0.4"/>
</svg>
