<svg width="200" height="200" viewBox="0 0 200 200" fill="none" xmlns="http://www.w3.org/2000/svg">
<g clip-path="url(#clip0_201_573)">
<path fill-rule="evenodd" clip-rule="evenodd" d="M191.558 173.175C176.202 173.533 160.877 174.757 145.658 176.842C122.917 179.842 100.175 184.092 77.85 187.092C69.2095 188.806 60.4789 190.031 51.7 190.758C45.95 190.758 40.6167 190.758 37.95 188.175C36.3509 185.016 35.3078 181.605 34.8667 178.092C31.5333 163.925 24.95 130.108 24.95 129.858C24.6831 129.503 24.3261 129.225 23.9159 129.053C23.5057 128.881 23.0571 128.822 22.6164 128.881C22.1757 128.941 21.7589 129.117 21.4088 129.391C21.0588 129.665 20.7882 130.028 20.625 130.442C23.7917 151.942 27.5417 178.342 27.7917 179.675C28.3417 184.642 29.8667 189.458 32.2917 193.842C36.2625 197.717 41.5688 199.921 47.1167 200C57.9167 200.033 68.7 198.95 79.2667 196.75C89.7667 195.167 100.35 193.333 111.008 191.333C126.675 188.333 142.325 185.167 158.075 183C169.408 181.25 180.65 179.917 191.892 179.25C192.615 179.211 193.297 178.895 193.795 178.369C194.294 177.843 194.571 177.146 194.571 176.421C194.571 175.696 194.294 174.999 193.795 174.472C193.297 173.946 192.615 173.631 191.892 173.592L191.558 173.175ZM189.308 106.867C187.225 100.45 180.975 104.783 181.975 109.7C185.392 133.442 187.808 158.267 188.642 164.683C188.771 165.399 189.169 166.039 189.753 166.472C190.338 166.905 191.066 167.098 191.788 167.013C192.511 166.928 193.174 166.571 193.642 166.014C194.11 165.457 194.349 164.743 194.308 164.017C193.725 157.433 191.975 130.942 189.308 106.867Z" fill="#EDEDED" fill-opacity="0.4"/>
<path fill-rule="evenodd" clip-rule="evenodd" d="M188.558 100.042C187.879 90.4231 186.089 80.9154 183.225 71.7083C182.601 70.736 181.753 69.927 180.753 69.3486C179.753 68.7702 178.629 68.4392 177.475 68.3833C173.595 68.2667 169.713 68.5741 165.9 69.3L125.75 74.2166C111.916 75.6333 95.4331 78.1333 81.5998 79.8C73.2665 80.8 39.9498 87.7166 23.2915 90.9583C21.204 91.3842 19.3302 92.524 17.9919 94.1816C16.6536 95.8393 15.9345 97.9113 15.9581 100.042V104.958C15.9581 105.875 17.2081 112.45 18.8748 123.358C18.9999 124.302 19.4873 125.16 20.2338 125.751C20.9803 126.342 21.9274 126.62 22.8748 126.525L34.0415 125.692C40.1248 125.025 46.0331 124.192 52.1165 123.442C61.2831 122.358 70.3581 121.442 79.5165 120.108C88.6831 118.775 97.5165 117.275 106.6 115.775L177.4 104.117C185.483 102.7 188.65 101.117 188.566 100.033M93.4415 96.8666C92.6081 98.5222 91.8581 100.217 91.1915 101.95C90.2748 104.367 89.5248 106.783 88.6915 109.117L78.1081 111.025C69.1915 112.608 60.1998 114.525 51.2915 116.275C45.2915 117.358 39.3748 118.775 33.3748 119.775C30.4304 120.331 27.4609 120.719 24.4665 120.942C23.7165 116.858 22.7165 112.108 22.1331 107.275C21.6286 104.128 21.6286 100.922 22.1331 97.775L25.9665 96.4416C28.7998 95.525 31.7998 94.6916 34.7998 94.025C37.7998 93.3583 40.8831 92.775 43.8831 92.275C46.8748 91.775 52.2081 91.2833 56.0331 90.7C56.0331 91.2 55.1165 91.5333 54.6998 91.95C53.6887 93.1722 52.7442 94.45 51.8665 95.7833C51.0331 97.1166 50.3665 98.45 49.6165 99.8666C44.1248 110.7 43.7915 112.442 45.8748 113.775C47.9581 115.108 49.6248 113.775 57.1248 104.775C58.1081 103.581 59.0248 102.331 59.8748 101.025C60.7526 99.775 61.5581 98.4694 62.2915 97.1083C63.5415 94.6083 64.5415 92.025 65.6998 89.5333L76.6998 88.1166L100.1 86.0333C98.6831 87.95 97.1831 89.8666 95.7665 91.95C94.9103 93.5789 94.1316 95.2474 93.4331 96.95L93.4415 96.8666ZM136.758 89.7833C135.925 91.3666 135.175 93.0333 134.425 94.7C133.675 96.3666 132.341 100.2 131.341 103.033H128.508C120.675 103.867 112.925 104.95 105.183 106.117L98.2665 107.367L99.2665 105.783C100.266 104.2 101.1 102.617 102.016 100.95C102.85 99.2833 103.6 97.5888 104.266 95.8666C105.6 92.3666 106.516 88.7833 107.683 85.2L126.6 83.5333C131.825 82.9993 137.042 82.3881 142.25 81.7C141.333 82.7833 140.416 83.7833 139.583 84.95C138.555 86.5388 137.611 88.1777 136.75 89.8666L136.758 89.7833ZM140.091 102.117L142.425 98.95C143.425 97.4777 144.341 95.95 145.175 94.3666C146.091 92.8111 146.897 91.2 147.591 89.5333C148.841 86.6166 149.841 83.7 150.841 80.7L167.075 78.3666C170.091 77.95 173.119 77.7555 176.158 77.7833C178.103 84.5611 179.491 91.45 180.325 98.45C166.575 100.033 153.491 101.033 140.091 102.2V102.117ZM63.4415 72.05L81.9415 64.2166L119.666 48.8083L151.491 36.725C152.741 36.225 157.325 34.8083 159.825 33.475C161.517 32.7546 162.923 31.4947 163.825 29.8916C164.277 28.8109 164.511 27.6509 164.511 26.4791C164.511 25.3074 164.277 24.1474 163.825 23.0666C161.536 18.6713 158.739 14.5599 155.491 10.8166C154.325 9.14996 152.741 6.31663 151.075 4.24163C150.072 2.91116 148.828 1.78053 147.408 0.908297C145.893 0.135168 144.177 -0.155633 142.491 0.0749638C139.33 0.69163 136.247 1.58052 133.241 2.74163C128.666 4.0833 124.166 5.5833 119.833 7.24996C113.333 9.66663 107.008 12.3333 100.508 14.9166C87.0165 20.4166 73.1081 25.4083 59.5248 31.575C50.3026 35.2027 41.3637 39.425 32.7081 44.2416L13.7081 55.7333C11.7032 56.7044 9.75559 57.7895 7.8748 58.9833C7.06613 59.6715 6.41284 60.5237 5.95813 61.4833C5.04 64.3818 5.04 67.4931 5.95813 70.3916C7.16925 73.9583 8.75258 77.3472 10.7081 80.5583C11.7081 82.3083 12.7081 84.1416 13.8748 85.8083C14.8137 87.2305 15.8415 88.5889 16.9581 89.8833C25.2581 88.05 33.3081 85.2583 40.9581 81.55L63.4415 72.05ZM123 16.0666C127.166 14.5666 131.333 13.15 135.75 11.9833C137.083 11.5666 142.916 11.9833 144.083 10.0666L144.833 10.9833C146.166 12.9 147.333 15.0666 148.416 16.4C149.5 17.7333 151.575 25.3166 154.325 26.65C152.075 27.3166 148.825 27.7333 148.158 28.0666L134.991 33.4C132.408 31.15 129.833 28.9 126.666 26.7333L122.333 23.7333C120.916 22.8166 119.416 21.9833 117.833 21.15L114.166 19.4L123 16.0666ZM103.841 23.4L106.841 22.2333C109.23 24.9889 111.841 27.5166 114.675 29.8166C117.03 31.4777 119.503 32.95 122.091 34.2333L127.091 36.5666L116.591 40.9L101.008 47.8916C97.9248 45.475 95.0915 42.8916 92.0081 40.5583C90.7634 39.5106 89.4584 38.5367 88.0998 37.6416C86.7628 36.6995 85.3715 35.8369 83.9331 35.0583L78.7665 32.5583L103.841 23.4ZM36.1998 50.475C44.7131 45.9425 53.509 41.962 62.5331 38.5583L71.4415 35.225C73.6748 37.7416 76.0359 40.1305 78.5248 42.3916C79.8081 43.4861 81.1693 44.4861 82.6081 45.3916C84.0304 46.3083 85.4998 47.1416 87.0165 47.8916C89.3498 49.0583 91.6831 49.975 94.0165 50.8916L79.0998 57.6416L61.1915 65.975C61.1915 65.975 61.1915 65.225 60.3581 65.0583C57.0248 62.725 54.0248 60.1416 50.6915 57.8916C48.5019 56.3674 46.2228 54.976 43.8665 53.725C41.1539 52.5051 38.3712 51.4477 35.5331 50.5583L36.1998 50.475ZM43.0331 74.4666C35.3665 77.9666 27.7831 81.3 19.9581 84.3833L15.7915 77.6333C14.1121 74.8397 12.796 71.8433 11.8748 68.7166C11.2936 67.1579 11.2936 65.442 11.8748 63.8833L17.1248 61.3L29.7915 54.1333C32.3748 56.4666 34.8748 58.8 37.6248 60.8833C38.8915 61.9166 40.2248 62.8611 41.6248 63.7166C43.1248 64.55 44.6998 65.3 46.1998 65.9666C48.922 67.1444 51.6998 68.1722 54.5331 69.05L43.0331 74.4666Z" fill="#0C6FFF" fill-opacity="0.4"/>
<path fill-rule="evenodd" clip-rule="evenodd" d="M52.3666 150.85C51.9594 150.865 51.5614 150.976 51.2052 151.174C50.849 151.372 50.5447 151.651 50.3172 151.989C50.0896 152.327 49.9453 152.714 49.896 153.119C49.8466 153.523 49.8937 153.934 50.0333 154.317C50.2158 154.782 50.5382 155.18 50.9561 155.454C51.374 155.729 51.8668 155.867 52.3666 155.85C57.5388 156.044 62.7027 155.905 67.8583 155.433C75.4416 154.767 82.9416 153.517 90.5166 152.517C98.1 151.517 107.183 150.1 115.508 148.683C121.092 147.683 126.675 146.517 132.167 145.35C139.583 143.6 147 141.683 154.492 140.267C159.414 139.239 164.386 138.489 169.408 138.017C169.78 137.995 170.143 137.9 170.478 137.737C170.813 137.575 171.113 137.348 171.36 137.07C171.607 136.792 171.797 136.468 171.919 136.116C172.041 135.764 172.093 135.392 172.071 135.021C172.049 134.649 171.954 134.286 171.792 133.951C171.629 133.616 171.402 133.316 171.124 133.069C170.846 132.822 170.522 132.632 170.17 132.51C169.819 132.388 169.446 132.336 169.075 132.358C163.908 132.358 158.658 132.858 153.408 133.442C148.158 134.025 140.825 135.192 134.575 136.108V133.358C134.669 132.392 134.669 131.419 134.575 130.442C134.409 129.477 134.158 128.529 133.825 127.608C133.825 126.775 129.833 119.275 127.083 119.275C126.25 119.275 124.833 119.275 124.833 129.108C124.707 130.021 124.707 130.946 124.833 131.858C125.028 132.775 125.306 133.664 125.667 134.525C125.95 135.33 126.283 136.108 126.667 136.858C119.583 138.025 112.333 138.942 105.175 140.192C100.175 141.025 95.175 142.108 90.175 143.108V139.275C90.2638 138.247 90.2638 137.219 90.175 136.192C90.0433 135.202 89.823 134.225 89.5166 133.275C86.7666 123.692 84.9333 123.942 84.0166 124.108C83.1 124.275 80.9333 123.358 80.5166 134.358C80.2769 136.472 80.5337 138.612 81.2666 140.608C81.7277 142.008 82.2833 143.369 82.9333 144.692C77.4333 146.108 71.85 147.525 66.275 148.608C61.6916 149.658 57.0527 150.408 52.3583 150.858" fill="#EDEDED" fill-opacity="0.4"/>
</g>
<defs>
<clipPath id="clip0_201_573">
<rect width="200" height="200" fill="white"/>
</clipPath>
</defs>
</svg>
