<svg width="22" height="23" viewBox="0 0 22 23" fill="none" xmlns="http://www.w3.org/2000/svg">
<path d="M10.8631 7.64491C8.86784 7.64491 7.23959 9.27318 7.23959 11.2684C7.23959 13.2637 8.86784 14.892 10.8631 14.892C12.8583 14.892 14.4865 13.2637 14.4865 11.2684C14.4865 9.27318 12.8583 7.64491 10.8631 7.64491ZM21.7307 11.2684C21.7307 9.76792 21.7443 8.28099 21.6601 6.78319C21.5758 5.04346 21.1789 3.49945 19.9068 2.22727C18.6319 0.952377 17.0906 0.558219 15.3509 0.473951C13.8504 0.389683 12.3635 0.403274 10.8658 0.403274C9.36528 0.403274 7.87838 0.389683 6.38061 0.473951C4.64091 0.558219 3.09693 0.955095 1.82477 2.22727C0.549901 3.50217 0.15575 5.04346 0.0714838 6.78319C-0.0127829 8.28371 0.000808536 9.77064 0.000808536 11.2684C0.000808536 12.7662 -0.0127829 14.2559 0.0714838 15.7537C0.15575 17.4934 0.552619 19.0374 1.82477 20.3096C3.09965 21.5845 4.64091 21.9787 6.38061 22.0629C7.8811 22.1472 9.368 22.1336 10.8658 22.1336C12.3663 22.1336 13.8532 22.1472 15.3509 22.0629C17.0906 21.9787 18.6346 21.5818 19.9068 20.3096C21.1816 19.0347 21.5758 17.4934 21.6601 15.7537C21.747 14.2559 21.7307 12.769 21.7307 11.2684ZM10.8631 16.8437C7.77781 16.8437 5.28786 14.3537 5.28786 11.2684C5.28786 8.18313 7.77781 5.69314 10.8631 5.69314C13.9483 5.69314 16.4382 8.18313 16.4382 11.2684C16.4382 14.3537 13.9483 16.8437 10.8631 16.8437ZM16.6666 6.76688C15.9462 6.76688 15.3645 6.18516 15.3645 5.4648C15.3645 4.74445 15.9462 4.16272 16.6666 4.16272C17.3869 4.16272 17.9686 4.74445 17.9686 5.4648C17.9689 5.63586 17.9353 5.80527 17.87 5.96334C17.8046 6.12142 17.7087 6.26504 17.5877 6.38599C17.4668 6.50695 17.3232 6.60285 17.1651 6.66821C17.007 6.73357 16.8376 6.7671 16.6666 6.76688Z" fill="#0027FF"/>
</svg>
