<svg width="23" height="23" viewBox="0 0 23 23" fill="none" xmlns="http://www.w3.org/2000/svg">
<path d="M5.5089 22.5368H0.83653V7.49028H5.5089V22.5368ZM3.1699 5.43782C1.67603 5.43782 0.463867 4.1999 0.463867 2.70603C0.463867 1.98835 0.748966 1.30006 1.25645 0.792578C1.76392 0.285099 2.45221 0 3.1699 0C3.88758 0 4.57587 0.285099 5.08335 0.792578C5.59083 1.30006 5.87593 1.98835 5.87593 2.70603C5.87593 4.1999 4.66377 5.43782 3.1699 5.43782ZM22.9959 22.5368H18.334V15.2124C18.334 13.4666 18.2986 11.2282 15.9048 11.2282C13.4757 11.2282 13.103 13.1245 13.103 15.0868V22.5368H8.43547V7.49028H12.9163V9.54274H12.9815C13.6053 8.36036 15.1289 7.11279 17.4019 7.11279C22.1306 7.11279 22.9999 10.2269 22.9999 14.2715V22.5368H22.9959Z" fill="#0027FF"/>
</svg>
