<svg width="46" height="46" viewBox="0 0 46 46" fill="none" xmlns="http://www.w3.org/2000/svg">
<path opacity="0.2" d="M43.625 6.125V39.875C43.625 40.8696 43.2299 41.8234 42.5266 42.5266C41.8234 43.2299 40.8696 43.625 39.875 43.625H6.125C5.13044 43.625 4.17661 43.2299 3.47335 42.5266C2.77009 41.8234 2.375 40.8696 2.375 39.875V6.125C2.375 5.13044 2.77009 4.17661 3.47335 3.47335C4.17661 2.77009 5.13044 2.375 6.125 2.375H39.875C40.8696 2.375 41.8234 2.77009 42.5266 3.47335C43.2299 4.17661 43.625 5.13044 43.625 6.125Z" fill="#BDBDBD"/>
<path d="M45.5 23C45.5 23.4973 45.3025 23.9742 44.9508 24.3258C44.5992 24.6775 44.1223 24.875 43.625 24.875H24.875V43.625C24.875 44.1223 24.6775 44.5992 24.3258 44.9508C23.9742 45.3025 23.4973 45.5 23 45.5C22.5027 45.5 22.0258 45.3025 21.6742 44.9508C21.3225 44.5992 21.125 44.1223 21.125 43.625V24.875H2.375C1.87772 24.875 1.40081 24.6775 1.04918 24.3258C0.697544 23.9742 0.5 23.4973 0.5 23C0.5 22.5027 0.697544 22.0258 1.04918 21.6742C1.40081 21.3225 1.87772 21.125 2.375 21.125H21.125V2.375C21.125 1.87772 21.3225 1.40081 21.6742 1.04918C22.0258 0.697544 22.5027 0.5 23 0.5C23.4973 0.5 23.9742 0.697544 24.3258 1.04918C24.6775 1.40081 24.875 1.87772 24.875 2.375V21.125H43.625C44.1223 21.125 44.5992 21.3225 44.9508 21.6742C45.3025 22.0258 45.5 22.5027 45.5 23Z" fill="#BDBDBD"/>
</svg>
