<svg width="30" height="30" viewBox="0 0 30 30" fill="none" xmlns="http://www.w3.org/2000/svg">
<g clip-path="url(#clip0_246_1738)">
<path d="M4.96882 4.96882C5.14463 4.79307 5.38304 4.69434 5.63164 4.69434C5.88023 4.69434 6.11864 4.79307 6.29445 4.96882L9.3882 8.06257L12.4819 4.96882C12.6588 4.79805 12.8956 4.70356 13.1414 4.70569C13.3872 4.70783 13.6223 4.80642 13.7962 4.98024C13.97 5.15406 14.0686 5.3892 14.0707 5.63501C14.0728 5.88082 13.9783 6.11763 13.8076 6.29445L10.7138 9.3882L13.8076 12.4819C13.9783 12.6588 14.0728 12.8956 14.0707 13.1414C14.0686 13.3872 13.97 13.6223 13.7962 13.7962C13.6223 13.97 13.3872 14.0686 13.1414 14.0707C12.8956 14.0728 12.6588 13.9783 12.4819 13.8076L9.3882 10.7138L6.29445 13.8076C6.11763 13.9783 5.88082 14.0728 5.63501 14.0707C5.3892 14.0686 5.15406 13.97 4.98024 13.7962C4.80642 13.6223 4.70783 13.3872 4.70569 13.1414C4.70356 12.8956 4.79805 12.6588 4.96882 12.4819L8.06257 9.3882L4.96882 6.29445C4.79307 6.11864 4.69434 5.88023 4.69434 5.63164C4.69434 5.38304 4.79307 5.14463 4.96882 4.96882Z" fill="#EDEDED"/>
<path fill-rule="evenodd" clip-rule="evenodd" d="M0.51 2.56889C0 3.57201 0 4.87514 0 7.50014V11.2501C0 13.8751 0 15.1876 0.51 16.1814C0.96 17.0626 1.67625 17.7808 2.55375 18.2251C3.55688 18.7351 4.86 18.7351 7.485 18.7351H11.235C13.86 18.7351 15.1725 18.7351 16.1663 18.2251C17.0458 17.7762 17.761 17.0609 18.21 16.1814C18.72 15.1783 18.72 13.8751 18.72 11.2501V7.50014C18.72 4.87514 18.72 3.56264 18.21 2.56889C17.761 1.68937 17.0458 0.974109 16.1663 0.525137C15.1631 0.0151367 13.86 0.0151367 11.235 0.0151367H7.485C4.86 0.0151367 3.5475 0.0151367 2.55375 0.525137C1.67423 0.974109 0.958973 1.68937 0.51 2.56889ZM11.2538 1.88451H7.50375C6.15938 1.88451 5.2725 1.88451 4.57875 1.94076C3.91313 1.99701 3.6075 2.09264 3.41625 2.19201C2.88658 2.46174 2.45598 2.89234 2.18625 3.42201C2.08875 3.61514 1.99125 3.91889 1.93688 4.58451C1.88063 5.27264 1.88063 6.16701 1.88063 7.50951V11.2595C1.88063 12.6039 1.88063 13.4908 1.93688 14.1845C1.99125 14.8501 2.08688 15.1558 2.18625 15.347C2.45625 15.8758 2.88563 16.307 3.41625 16.577C3.60938 16.6745 3.91313 16.772 4.57875 16.8264C5.26688 16.8826 6.16125 16.8826 7.50375 16.8826H11.2538C12.5981 16.8826 13.485 16.8826 14.1788 16.8264C14.8444 16.7701 15.15 16.6764 15.3413 16.577C15.87 16.307 16.3013 15.8776 16.5713 15.347C16.6688 15.1539 16.7663 14.8501 16.8206 14.1845C16.8769 13.4964 16.8769 12.602 16.8769 11.2595V7.50951C16.8769 6.16514 16.8769 5.27826 16.8206 4.58451C16.7663 3.91889 16.6706 3.61326 16.5713 3.42201C16.3015 2.89234 15.8709 2.46174 15.3413 2.19201C15.1481 2.09264 14.8444 1.99701 14.1788 1.94264C13.4906 1.88639 12.5963 1.88451 11.2538 1.88451Z" fill="#EDEDED"/>
<path d="M6.56251 22.5002C6.99001 23.0702 7.54313 23.5371 8.18438 23.8652C9.18751 24.3752 10.4906 24.3752 13.1156 24.3752H16.8656C19.4906 24.3752 20.8031 24.3752 21.8156 23.8652C22.6952 23.4163 23.4104 22.701 23.8594 21.8215C24.3694 20.8184 24.3694 19.5152 24.3694 16.8715V13.1215C24.3694 10.4965 24.3694 9.18398 23.8594 8.19023C23.5342 7.55247 23.0673 6.99766 22.4944 6.56836V16.8809C22.4944 18.2252 22.4944 19.1121 22.4381 19.8059C22.3819 20.4715 22.2863 20.7771 22.1869 20.9684C21.9172 21.498 21.4866 21.9286 20.9569 22.1984C20.7638 22.2959 20.46 22.3934 19.7944 22.4477C19.1063 22.504 18.2119 22.504 16.8694 22.504H6.55688L6.56251 22.5002Z" fill="#EDEDED"/>
<path d="M13.8187 29.4373C13.1809 29.1121 12.6261 28.6451 12.1968 28.0723H22.5093C23.8537 28.0723 24.7405 28.0723 25.4343 28.016C26.0999 27.9598 26.4055 27.8641 26.5968 27.7648C27.1255 27.4948 27.5568 27.0654 27.8268 26.5348C27.9243 26.3416 28.0218 26.0379 28.0762 25.3723C28.1324 24.6841 28.1324 23.7898 28.1324 22.4473V12.1348C28.706 12.5639 29.1736 13.1187 29.4993 13.7566C30.0093 14.7598 30.0093 16.0629 30.0093 18.6879V22.4379C30.0093 25.0629 30.0093 26.3754 29.4993 27.3879C29.0503 28.2674 28.335 28.9827 27.4555 29.4316C26.4524 29.9416 25.1493 29.9416 22.5055 29.9416H18.7555C16.1305 29.9416 14.818 29.9416 13.8243 29.4316L13.8187 29.4373Z" fill="#EDEDED"/>
</g>
<defs>
<clipPath id="clip0_246_1738">
<rect width="30" height="30" fill="white"/>
</clipPath>
</defs>
</svg>
